<svg version="1.2" xmlns="http://www.w3.org/2000/svg" viewBox="0 0 68 60" width="68" height="60">
	<title>logo-priority-svg</title>
	<defs>
		<clipPath clipPathUnits="userSpaceOnUse" id="cp1">
			<path d="m3 0h212v60h-212z"/>
		</clipPath>
	</defs>
	<style>
		.s0 { fill: #fff } 
	</style>
	<g id="Clip-Path" clip-path="url(#cp1)">
		<g>
			<path fill-rule="evenodd" class="s0" d="m65.9 17.6c0 2.3-0.5 4.6-1.4 6.7-0.9 2.1-2.3 4.1-4 5.7q0 0 0 0 0 0 0 0 0 0 0 0 0 0 0 0 0-3.3-0.9-6.4l-6.7 6.4 6.7 6.4q0.9-3.1 0.9-6.4c1.7 1.6 3.1 3.6 4 5.7 0.9 2.1 1.4 4.4 1.4 6.7 0 9.7-8.3 17.6-18.4 17.6-2.5 0-4.8-0.5-7.1-1.3-2.2-0.9-4.2-2.2-6-3.8-1.7 1.6-3.7 2.9-5.9 3.8-2.3 0.8-4.7 1.3-7.1 1.3-10.2 0-18.4-7.9-18.4-17.6 0-2.3 0.5-4.6 1.4-6.7 0.9-2.1 2.3-4.1 4-5.7q0 3.3 0.9 6.4l6.7-6.4-6.7-6.4q-0.9 3.1-0.9 6.4c-1.7-1.6-3.1-3.6-4-5.7-0.9-2.1-1.4-4.4-1.4-6.7 0-9.7 8.2-17.6 18.4-17.6 2.4 0 4.8 0.5 7.1 1.3 2.2 0.9 4.2 2.2 5.9 3.8 1.8-1.6 3.8-2.9 6-3.8 2.3-0.8 4.6-1.3 7.1-1.3 10.1 0 18.4 7.9 18.4 17.6zm-57.5 12.4q0 0 0 0 0 0 0 0 0 0 0 0zm13 0c0 4.6 2.6 8.6 6.6 10.8-0.7-0.9-1.1-1.9-1.3-2.9-0.2-1.1-0.2-2.1 0.1-3.2 0.3-1 0.8-1.9 1.5-2.8 0.7-0.8 1.6-1.4 2.6-1.9 1-0.5 2.1-0.7 3.3-0.8q0.1 0 0.1 0c1.6 0 3.1-0.6 4.3-1.6 1.1-1.1 1.7-2.5 1.8-4 0-1.5-0.5-3-1.6-4.1-1-1.1-2.5-1.8-4.1-1.9q-0.1 0-0.3 0-0.4 0-0.9 0 0 0-0.1 0c-3.2 0.2-6.3 1.7-8.5 4-2.2 2.3-3.5 5.3-3.5 8.4zm24.1 6.5c1.3-2 2-4.2 2-6.5 0-4.8-2.9-9-7.2-11.1 0.9 1.1 1.5 2.4 1.6 3.8 0.2 1.3-0.1 2.7-0.7 3.9-0.7 1.3-1.7 2.3-2.9 3-1.2 0.8-2.6 1.1-4 1.1-1.6 0-3.2 0.6-4.3 1.7-1.1 1-1.8 2.5-1.9 4 0 1.5 0.6 3 1.6 4.1 1.1 1.1 2.6 1.8 4.2 1.9q0 0 0 0 0.1 0 0.2 0 0.1 0 0.2 0h0.1c2.1 0 4.1-0.4 5.9-1.3 2.2-1.1 4-2.6 5.2-4.6zm-17.8-30.5l6.7 6.4 6.8-6.4q-3.3-0.9-6.8-0.9-3.4 0-6.7 0.9zm5.4 18.5c-0.3-0.3-0.5-0.7-0.5-1.1q0-0.5 0.3-0.9 0.3-0.4 0.7-0.5 0.5-0.2 1-0.1 0.5 0.1 0.8 0.4 0.4 0.3 0.5 0.8 0.1 0.5-0.1 0.9-0.2 0.4-0.6 0.7-0.4 0.3-0.9 0.3c-0.5 0-0.9-0.2-1.2-0.5zm8.1 29.5l-6.8-6.4-6.7 6.4q3.3 0.9 6.7 0.8 3.5 0.1 6.8-0.8zm-6.3-18.9q0.3 0.2 0.5 0.4 0.3 0.2 0.4 0.5 0.1 0.3 0.1 0.6 0 0.5-0.3 0.8-0.2 0.4-0.7 0.6-0.5 0.2-1 0.1-0.4-0.1-0.8-0.4-0.3-0.3-0.4-0.8-0.1-0.5 0.1-0.9 0.1-0.5 0.6-0.7 0.4-0.3 0.9-0.3 0.3 0 0.6 0.1zm64.4-15.4q1.3 2.2 1.3 4.8 0 2.7-1.3 4.9-1.2 2.2-3.4 3.4-2.4 1.3-6.8 1.3h-1.2v10.9h-6.3v-30h7.5q4.4 0 6.8 1.4 2.2 1.1 3.4 3.3zm-6 8q1.2-1 1.2-3.1 0-2.1-1.2-3.1-1.2-1-3.8-1h-1.6v8.2h1.6q2.6 0 3.8-1zm16.3-1.5q1.8-1.2 3.8-1.2 0.7 0 2.1 0.1v5.1q-1.2-0.1-2.1-0.1-2.2 0-3 1.1-0.8 1.2-0.8 4.2v9.6h-6v-19.9h6zm11.7-11.3q1.5 0 2.6 1 1.1 1 1.1 2.4 0 1.4-1.1 2.4-1.1 1-2.6 1-1.5 0-2.6-1-1.1-1-1.1-2.5 0-1.4 1.1-2.3 1.1-1 2.6-1zm-3 10.2h6v19.9h-6zm21.1-0.7q4.6 0 7.8 3.1 3.3 3.1 3.3 7.5 0 4.5-3.2 7.6-3.3 3.1-8 3.1-4.8 0-8-3.1-3.3-3.1-3.3-7.6 0-4.5 3.3-7.6 3.3-3 8.1-3zm3.6 14.6q1.4-1.5 1.4-3.9 0-2.4-1.4-4-1.4-1.5-3.7-1.5-2.3 0-3.8 1.5-1.4 1.5-1.4 3.9 0 2.5 1.4 4 1.5 1.6 3.8 1.6 2.2 0 3.7-1.6zm17.3-12.8q1.8-1.2 3.8-1.2 0.6 0 2.1 0.1v5.1q-1.2-0.1-2.1-0.1-2.2 0-3 1.2-0.8 1.1-0.8 4.1v9.6h-6.1v-19.9h6.1zm11.7-11.3q1.5 0 2.6 1 1.1 1 1.1 2.4 0 1.4-1.1 2.4-1.1 1-2.6 1-1.6 0-2.6-1-1.1-1-1.1-2.4 0-1.4 1.1-2.4 1.1-1 2.6-1zm-3 10.2h6v19.9h-6zm17.5 13.3q0 1.7 0.9 1.7 0.7 0 2.5-0.6v5.4q-1.7 0.5-3.4 0.6-2.9 0-4.5-1.9-1.6-1.8-1.6-5.1v-8.2h-2.1v-5.2h2.1v-4.1l6.1-2.2v6.3h3.1v5.2h-3.1zm28.5-13.2l-14.2 30.3h-6.4l5.3-11.5-8.2-18.8h6.5l5 11.8 5.5-11.8z"/>
		</g>
	</g>
</svg>