<?xml version="1.0" encoding="UTF-8"?>
<!DOCTYPE svg PUBLIC "-//W3C//DTD SVG 1.1//EN" "http://www.w3.org/Graphics/SVG/1.1/DTD/svg11.dtd">
<svg xmlns="http://www.w3.org/2000/svg" version="1.1" width="304.9088528193368" height="304.91562500000003" viewBox="0 0 120 120.0026652610184" class="looka-1j8o68f">
  <defs id="SvgjsDefs1310"></defs>
  <g id="SvgjsG1311" featurekey="symbolFeature-0" transform="matrix(1.3333629473446489,0,0,1.3333629473446489,-6.6681480030294455,-6.666814736723245)" fill="#e0e0e0">
    <rect xmlns="http://www.w3.org/2000/svg" x="5.001" y="5" fill="none" width="89.998" height="90"></rect>
    <path xmlns="http://www.w3.org/2000/svg" d="M94.516,31.056c-0.239-0.347-0.664-0.52-1.077-0.44l-34.155,6.568l-5.656-9.471c-0.199-0.332-0.564-0.532-0.95-0.518  c-0.387,0.013-0.736,0.234-0.914,0.579l-6.18,12.044l-7.318,1.407L6.376,40.802c-0.004,0-0.009,0-0.015,0  c-0.41,0-0.784,0.236-0.961,0.607c-0.179,0.375-0.123,0.82,0.143,1.141l24.875,29.872c0.205,0.245,0.506,0.384,0.819,0.384  c0.06,0,0.12-0.005,0.18-0.016l42.31-7.228c0.303-0.051,0.569-0.232,0.73-0.495l20.091-32.849  C94.768,31.859,94.755,31.402,94.516,31.056z M72.543,63.602l-36.524,6.24l32.396-17.804L72.543,63.602z M68.586,50.444  l-2.847-0.422c-0.002-0.109-0.032-0.217-0.09-0.314l-6.204-10.384l16.41-3.156l-0.964,9.345L68.586,50.444z M38.345,43.359  c0.04,0,0.08-0.002,0.12-0.006l2.79,3.041l-22.204-3.291L38.345,43.359z M52.155,31.912l0.353,15.612l-7.773-1.151L52.155,31.912z   M53.791,47.714L53.43,31.747L63.86,49.206L53.791,47.714z M43.189,46.582c-0.003,0.005-0.005,0.012-0.008,0.019l-3.237-3.526  l5.597-1.076L43.189,46.582z M77.167,35.916l13.256-2.549L76.289,44.419L77.167,35.916z M8.662,42.964l0.809,0.011l57.321,8.496  L32.166,70.5l-0.502,0.085L8.662,42.964z M73.515,62.521l-3.993-11.186l20.772-16.244L73.515,62.521z"></path>
  </g>
</svg>